<svg width="250" height="61" viewBox="0 0 250 61" fill="none" xmlns="http://www.w3.org/2000/svg">
<path d="M21.2542 18.5109C32.9752 18.5109 42.5083 28.0397 42.5083 39.7554C42.5083 51.4712 32.9752 61 21.2542 61C9.53312 61 0 51.4712 0 39.7554C0 28.0397 9.53312 18.5109 21.2542 18.5109ZM21.2542 59.3598C29.3026 59.3598 35.8664 50.8464 35.8664 39.7554C35.8664 28.7426 29.3026 20.1511 21.2542 20.1511C13.2057 20.1511 6.64193 28.7426 6.64193 39.7554C6.64193 50.8464 13.2057 59.3598 21.2542 59.3598Z" fill="currentColor"/>
<path d="M60.2495 15.1524H60.0932C59.468 14.6056 55.8736 11.0909 55.8736 8.90397C55.8736 6.56082 57.8271 4.6863 60.1713 4.6863C62.5155 4.6863 64.3909 6.56082 64.3909 8.90397C64.3909 11.0909 60.8746 14.6056 60.2495 15.1524ZM63.4532 51.7836C63.5313 55.5327 64.0783 60.4533 69.0012 60.4533V60.6876H51.2633V60.4533C56.655 60.4533 56.8113 54.6735 56.8113 50.8463V25.8528C56.655 22.9629 55.7955 21.2446 52.1229 21.2446V21.0102L63.3751 18.5109H63.4532V51.7836Z" fill="currentColor"/>
<path d="M107.402 50.5339C109.433 53.7362 113.419 60.4533 118.888 60.4533V60.6876H101.463V60.4533C107.011 60.4533 103.182 54.5954 101.072 50.9245L94.0399 38.8182L88.6482 45.0666V51.4712C88.7263 55.2202 89.117 60.4533 94.1961 60.4533V60.6876H76.4583V60.4533C81.5374 60.4533 82.0062 55.2202 82.0062 51.4712V7.34187C81.85 4.45198 80.9904 2.73367 77.2397 2.73367V2.49936L88.57 0H88.6482V42.5672L102.635 26.3214C104.901 23.6658 108.496 19.1357 104.589 19.1357V18.9014H116.232V19.1357C111.465 19.1357 107.167 23.5877 104.198 27.0243L97.7906 34.4443L107.402 50.5339Z" fill="currentColor"/>
<path d="M134.691 15.1524H134.535C133.91 14.6056 130.315 11.0909 130.315 8.90397C130.315 6.56082 132.269 4.6863 134.613 4.6863C136.957 4.6863 138.833 6.56082 138.833 8.90397C138.833 11.0909 135.316 14.6056 134.691 15.1524ZM137.895 51.7836C137.973 55.5327 138.52 60.4533 143.443 60.4533V60.6876H125.705V60.4533C131.097 60.4533 131.253 54.6735 131.253 50.8463V25.8528C131.097 22.9629 130.237 21.2446 126.565 21.2446V21.0102L137.817 18.5109H137.895V51.7836Z" fill="currentColor"/>
<path d="M173.419 18.5109C185.14 18.5109 194.673 28.0397 194.673 39.7554C194.673 51.4712 185.14 61 173.419 61C161.698 61 152.165 51.4712 152.165 39.7554C152.165 28.0397 161.698 18.5109 173.419 18.5109ZM173.419 59.3598C181.468 59.3598 188.031 50.8464 188.031 39.7554C188.031 28.7426 181.468 20.1511 173.419 20.1511C165.371 20.1511 158.807 28.7426 158.807 39.7554C158.807 50.8464 165.371 59.3598 173.419 59.3598Z" fill="currentColor"/>
<path d="M244.452 53.4238C244.686 56.7823 245.702 60.4533 250 60.4533V60.6876H232.262V60.4533C237.185 60.4533 237.732 55.6108 237.81 51.8617V36.0845C237.732 24.8374 232.418 21.1664 226.949 21.1664C221.557 21.1664 216.165 24.6812 215.618 28.3521V51.4712C215.696 55.2983 216.087 60.4533 221.166 60.4533V60.6876H203.428V60.4533C208.976 60.4533 208.976 54.3611 208.976 50.5339V25.8528C208.82 22.9629 207.961 21.2446 204.288 21.2446V21.0102L215.54 18.5109H215.618V24.1344C218.353 20.6197 223.745 18.2766 229.215 18.2766C236.794 18.2766 244.374 22.9629 244.452 35.9283V53.4238Z" fill="currentColor"/>
</svg>
