<svg width="24" height="24" viewBox="0 0 185 185" fill="none" xmlns="http://www.w3.org/2000/svg">
<path d="M92.5 2.5C105.095 2.5 117.926 5.13147 130.066 10.624L131.239 11.165L131.246 11.168L131.254 11.1719C176.133 32.5918 194.988 86.3843 173.833 131.243L173.829 131.251L173.825 131.26C158.272 163.641 125.893 182.5 92.252 182.5C79.4955 182.5 66.2428 179.694 53.7607 173.835L53.7539 173.832L53.7461 173.828C8.86717 152.408 -9.9877 98.6157 11.167 53.7568L11.1709 53.749L11.1748 53.7402C26.7248 21.3656 58.8512 2.5 92.5 2.5ZM93.4561 12.9531C59.9129 12.7309 31.2878 47.2246 30.8008 91.7842C30.3138 136.361 58.0017 171.578 91.791 172.047C125.314 172.516 153.96 137.802 154.447 93.2158C154.934 48.6459 127.003 13.4223 93.4561 12.9531Z" fill="white" stroke="white" stroke-width="5"/>
</svg> 