<svg width="495" height="126" viewBox="0 0 495 126" fill="none" xmlns="http://www.w3.org/2000/svg">
<path d="M44.1938 38.6002C68.1938 38.6002 87.7138 58.1202 87.7138 82.1202C87.7138 106.12 68.1938 125.64 44.1938 125.64C20.1938 125.64 0.673828 106.12 0.673828 82.1202C0.673828 58.1202 20.1938 38.6002 44.1938 38.6002ZM44.1938 122.28C60.6738 122.28 74.1138 104.84 74.1138 82.1202C74.1138 59.5602 60.6738 41.9602 44.1938 41.9602C27.7138 41.9602 14.2738 59.5602 14.2738 82.1202C14.2738 104.84 27.7138 122.28 44.1938 122.28Z" fill="white"/>
<path d="M120.374 31.7202H120.054C118.774 30.6002 111.414 23.4002 111.414 18.9202C111.414 14.1202 115.414 10.2802 120.214 10.2802C125.014 10.2802 128.854 14.1202 128.854 18.9202C128.854 23.4002 121.654 30.6002 120.374 31.7202ZM126.934 106.76C127.094 114.44 128.214 124.52 138.294 124.52V125H101.974V124.52C113.014 124.52 113.334 112.68 113.334 104.84V53.6402C113.014 47.7202 111.254 44.2002 103.734 44.2002V43.7202L126.774 38.6002H126.934V106.76Z" fill="white"/>
<path d="M213.256 104.2C217.416 110.76 225.576 124.52 236.776 124.52V125H201.096V124.52C212.456 124.52 204.616 112.52 200.296 105L185.896 80.2002L174.856 93.0002V106.12C175.016 113.8 175.816 124.52 186.216 124.52V125H149.896V124.52C160.296 124.52 161.256 113.8 161.256 106.12V15.7202C160.936 9.80017 159.176 6.28017 151.496 6.28017V5.80017L174.696 0.680176H174.856V87.8802L203.496 54.6002C208.136 49.1602 215.496 39.8802 207.496 39.8802V39.4002H231.336V39.8802C221.576 39.8802 212.776 49.0002 206.696 56.0402L193.576 71.2402L213.256 104.2Z" fill="white"/>
<path d="M265.468 31.7202H265.148C263.868 30.6002 256.508 23.4002 256.508 18.9202C256.508 14.1202 260.508 10.2802 265.308 10.2802C270.108 10.2802 273.948 14.1202 273.948 18.9202C273.948 23.4002 266.748 30.6002 265.468 31.7202ZM272.028 106.76C272.188 114.44 273.308 124.52 283.388 124.52V125H247.068V124.52C258.108 124.52 258.428 112.68 258.428 104.84V53.6402C258.108 47.7202 256.348 44.2002 248.828 44.2002V43.7202L271.868 38.6002H272.028V106.76Z" fill="white"/>
<path d="M341.1 38.6002C365.1 38.6002 384.62 58.1202 384.62 82.1202C384.62 106.12 365.1 125.64 341.1 125.64C317.1 125.64 297.58 106.12 297.58 82.1202C297.58 58.1202 317.1 38.6002 341.1 38.6002ZM341.1 122.28C357.58 122.28 371.02 104.84 371.02 82.1202C371.02 59.5602 357.58 41.9602 341.1 41.9602C324.62 41.9602 311.18 59.5602 311.18 82.1202C311.18 104.84 324.62 122.28 341.1 122.28Z" fill="white"/>
<path d="M482.88 110.12C483.36 117 485.44 124.52 494.24 124.52V125H457.92V124.52C468 124.52 469.12 114.6 469.28 106.92V74.6002C469.12 51.5602 458.24 44.0402 447.04 44.0402C436 44.0402 424.96 51.2402 423.84 58.7602V106.12C424 113.96 424.8 124.52 435.2 124.52V125H398.88V124.52C410.24 124.52 410.24 112.04 410.24 104.2V53.6402C409.92 47.7202 408.16 44.2002 400.64 44.2002V43.7202L423.68 38.6002H423.84V50.1202C429.44 42.9202 440.48 38.1202 451.68 38.1202C467.2 38.1202 482.72 47.7202 482.88 74.2802V110.12Z" fill="white"/>
</svg>
